<?xml version="1.0" encoding="UTF-8"?><svg xmlns="http://www.w3.org/2000/svg" xmlns:xlink="http://www.w3.org/1999/xlink" width="375" zoomAndPan="magnify" viewBox="0 0 375 374.999991" height="374.999991" preserveAspectRatio="xMidYMid meet" version="1.0"><defs><clipPath id="clip-0"><path d="M 67 80 L 305 80 L 305 298 L 67 298 Z M 67 80 " clip-rule="nonzero"/></clipPath><clipPath id="clip-1"><path d="M 86.371094 66.816406 L 308.261719 86.378906 L 288.699219 308.269531 L 66.8125 288.707031 Z M 86.371094 66.816406 " clip-rule="nonzero"/></clipPath><clipPath id="clip-2"><path d="M 86.371094 66.816406 L 308.261719 86.378906 L 288.699219 308.269531 L 66.8125 288.707031 Z M 86.371094 66.816406 " clip-rule="nonzero"/></clipPath></defs><rect x="-37.5" width="450" fill="rgb(100%, 100%, 100%)" y="-37.499999" height="449.999989" fill-opacity="1"/><rect x="-37.5" width="450" fill="rgb(100%, 100%, 100%)" y="-37.499999" height="449.999989" fill-opacity="1"/><rect x="-37.5" width="450" fill="rgb(100%, 100%, 100%)" y="-37.499999" height="449.999989" fill-opacity="1"/><g clip-path="url(#clip-0)"><g clip-path="url(#clip-1)"><g clip-path="url(#clip-2)"><path fill="rgb(55.688477%, 74.899292%, 14.509583%)" d="M 303.839844 96.945312 L 303.707031 93.402344 C 303.617188 91.382812 302.203125 89.648438 300.230469 89.203125 C 215.121094 70.476562 150.894531 80.644531 109.328125 119.421875 C 87.742188 139.523438 76.382812 164.417969 76.382812 191.296875 C 76.402344 213.882812 84.511719 236.554688 99.339844 255.574219 L 68.769531 281.1875 C 66.886719 282.765625 66.640625 285.5625 68.21875 287.445312 C 69.027344 288.410156 70.101562 288.910156 71.257812 289.011719 C 72.410156 289.113281 73.558594 288.765625 74.519531 288 L 105.089844 262.386719 C 121.191406 280.128906 141.972656 291.933594 164.074219 295.894531 C 166.804688 296.40625 169.589844 296.738281 172.296875 296.976562 C 195.996094 299.066406 219.480469 291.925781 240.601562 276.03125 C 262.207031 259.777344 277.863281 238.933594 288.441406 212.269531 C 300.566406 181.765625 305.734375 142.953125 303.839844 96.945312 Z M 280.140625 209.035156 C 270.195312 234.097656 255.492188 253.730469 235.234375 268.941406 C 215.886719 283.46875 194.511719 290.035156 173.03125 288.144531 C 170.546875 287.925781 168.113281 287.621094 165.605469 287.175781 C 145.574219 283.574219 126.664062 272.828125 111.894531 256.726562 L 145.984375 228.15625 L 227.332031 235.328125 C 229.773438 235.542969 231.945312 233.722656 232.160156 231.28125 C 232.375 228.839844 230.554688 226.667969 228.113281 226.453125 L 155.644531 220.0625 L 199.683594 183.15625 L 249.476562 187.546875 C 251.917969 187.761719 254.089844 185.941406 254.304688 183.5 C 254.519531 181.058594 252.699219 178.886719 250.257812 178.671875 L 209.34375 175.066406 L 245.609375 144.675781 C 247.492188 143.097656 247.738281 140.300781 246.160156 138.417969 C 244.582031 136.535156 241.785156 136.289062 239.902344 137.867188 L 203.300781 168.539062 L 206.957031 127.046875 C 207.171875 124.605469 205.351562 122.433594 202.910156 122.21875 C 200.46875 122 198.296875 123.824219 198.082031 126.261719 L 193.640625 176.632812 L 149.941406 213.210938 L 156.335938 140.695312 C 156.550781 138.253906 154.730469 136.082031 152.289062 135.867188 C 149.847656 135.652344 147.675781 137.472656 147.460938 139.914062 L 140.289062 221.257812 L 106.195312 249.828125 C 92.75 232.40625 85.355469 211.765625 85.328125 191.277344 C 85.332031 166.90625 95.730469 144.296875 115.421875 125.910156 C 146.410156 97.019531 191.203125 85.050781 249.027344 90.148438 C 263.539062 91.425781 278.855469 93.761719 294.964844 97.191406 L 294.957031 97.28125 C 296.78125 142.03125 291.808594 179.652344 280.140625 209.035156 Z M 280.140625 209.035156 " fill-opacity="1" fill-rule="nonzero"/></g></g></g></svg>